<svg width="14" height="14" viewBox="0 0 14 14" fill="none" xmlns="http://www.w3.org/2000/svg">
<path d="M7 12.25C5.60761 12.25 4.27226 11.6969 3.28769 10.7123C2.30312 9.72774 1.75 8.39239 1.75 7C1.75 5.60761 2.30312 4.27226 3.28769 3.28769C4.27226 2.30312 5.60761 1.75 7 1.75C8.39239 1.75 9.72774 2.30312 10.7123 3.28769C11.6969 4.27226 12.25 5.60761 12.25 7C12.25 8.39239 11.6969 9.72774 10.7123 10.7123C9.72774 11.6969 8.39239 12.25 7 12.25ZM7 13C8.5913 13 10.1174 12.3679 11.2426 11.2426C12.3679 10.1174 13 8.5913 13 7C13 5.4087 12.3679 3.88258 11.2426 2.75736C10.1174 1.63214 8.5913 1 7 1C5.4087 1 3.88258 1.63214 2.75736 2.75736C1.63214 3.88258 1 5.4087 1 7C1 8.5913 1.63214 10.1174 2.75736 11.2426C3.88258 12.3679 5.4087 13 7 13Z" fill="#513131" stroke="#513131" stroke-width="0.5"/>
<path d="M7 4C7.09946 4 7.19484 4.03951 7.26517 4.10984C7.33549 4.18016 7.375 4.27554 7.375 4.375V6.625H9.625C9.72446 6.625 9.81984 6.66451 9.89017 6.73484C9.96049 6.80516 10 6.90054 10 7C10 7.09946 9.96049 7.19484 9.89017 7.26517C9.81984 7.33549 9.72446 7.375 9.625 7.375H7.375V9.625C7.375 9.72446 7.33549 9.81984 7.26517 9.89017C7.19484 9.96049 7.09946 10 7 10C6.90054 10 6.80516 9.96049 6.73484 9.89017C6.66451 9.81984 6.625 9.72446 6.625 9.625V7.375H4.375C4.27554 7.375 4.18016 7.33549 4.10984 7.26517C4.03951 7.19484 4 7.09946 4 7C4 6.90054 4.03951 6.80516 4.10984 6.73484C4.18016 6.66451 4.27554 6.625 4.375 6.625H6.625V4.375C6.625 4.27554 6.66451 4.18016 6.73484 4.10984C6.80516 4.03951 6.90054 4 7 4V4Z" fill="#513131" stroke="#513131" stroke-width="0.5"/>
</svg>
