<svg width="30" height="30" viewBox="0 0 30 30" fill="none" xmlns="http://www.w3.org/2000/svg">
<g filter="url(#filter0_d_116_107)">
<path fill-rule="evenodd" clip-rule="evenodd" d="M7.00073 18.825V9.39982H8.33395V18.825C8.33395 19.0173 8.40419 19.2017 8.5292 19.3377C8.65421 19.4737 8.82377 19.5501 9.00056 19.5501H20.9996C21.1763 19.5501 21.3459 19.4737 21.4709 19.3377C21.5959 19.2017 21.6662 19.0173 21.6662 18.825V9.39982H22.9994V18.825C22.9994 19.4019 22.7887 19.9551 22.4136 20.363C22.0386 20.7709 21.5299 21.0001 20.9996 21.0001H9.00056C8.47018 21.0001 7.96151 20.7709 7.58647 20.363C7.21143 19.9551 7.00073 19.4019 7.00073 18.825V18.825ZM21.6662 2.87467V7.94979L18.9997 5.04972V2.87467C18.9997 2.68239 19.07 2.49798 19.195 2.36201C19.32 2.22604 19.4895 2.14966 19.6663 2.14966H20.9996C21.1763 2.14966 21.3459 2.22604 21.4709 2.36201C21.5959 2.49798 21.6662 2.68239 21.6662 2.87467Z" fill="#F6F8ED" stroke="#F6F8ED" stroke-width="0.5"/>
<path fill-rule="evenodd" clip-rule="evenodd" d="M14.0574 1.42455C14.3074 1.15271 14.6465 1 15 1C15.3535 1 15.6926 1.15271 15.9426 1.42455L24.8045 11.0615C24.9297 11.1976 25 11.3823 25 11.5748C25 11.7673 24.9297 11.952 24.8045 12.0881C24.6793 12.2242 24.5096 12.3007 24.3325 12.3007C24.1555 12.3007 23.9858 12.2242 23.8606 12.0881L15 2.44972L6.13941 12.0881C6.01424 12.2242 5.84447 12.3007 5.66745 12.3007C5.49043 12.3007 5.32066 12.2242 5.19549 12.0881C5.07032 11.952 5 11.7673 5 11.5748C5 11.3823 5.07032 11.1976 5.19549 11.0615L14.0574 1.42455Z" fill="#F6F8ED" stroke="#F6F8ED" stroke-width="0.5"/>
</g>
<defs>
<filter id="filter0_d_116_107" x="0.75" y="0.75" width="28.5" height="28.5" filterUnits="userSpaceOnUse" color-interpolation-filters="sRGB">
<feFlood flood-opacity="0" result="BackgroundImageFix"/>
<feColorMatrix in="SourceAlpha" type="matrix" values="0 0 0 0 0 0 0 0 0 0 0 0 0 0 0 0 0 0 127 0" result="hardAlpha"/>
<feOffset dy="4"/>
<feGaussianBlur stdDeviation="2"/>
<feComposite in2="hardAlpha" operator="out"/>
<feColorMatrix type="matrix" values="0 0 0 0 0 0 0 0 0 0 0 0 0 0 0 0 0 0 0.25 0"/>
<feBlend mode="normal" in2="BackgroundImageFix" result="effect1_dropShadow_116_107"/>
<feBlend mode="normal" in="SourceGraphic" in2="effect1_dropShadow_116_107" result="shape"/>
</filter>
</defs>
</svg>
