<svg width="30" height="29" viewBox="0 0 30 29" fill="none" xmlns="http://www.w3.org/2000/svg">
<g filter="url(#filter0_d_116_110)">
<path d="M24.2666 16.761L20.8881 13.3777L18.2894 12.3025C19.1547 11.0703 19.6183 9.60023 19.6166 8.09382C19.6166 4.04441 16.3269 0.75 12.2833 0.75C8.23965 0.75 4.94995 4.04441 4.94995 8.09382C4.94995 12.1432 8.23965 15.4376 12.2833 15.4376C13.8006 15.4394 15.2807 14.9671 16.5174 14.0867L17.5882 16.682L20.9666 20.0655C21.1832 20.2825 21.4405 20.4547 21.7236 20.5721C22.0067 20.6895 22.3101 20.75 22.6165 20.75C22.9229 20.75 23.2264 20.6896 23.5095 20.5722C23.7926 20.4547 24.0498 20.2826 24.2665 20.0656C24.4832 19.8487 24.655 19.5911 24.7723 19.3076C24.8896 19.0241 24.9499 18.7202 24.95 18.4134C24.95 18.1065 24.8896 17.8026 24.7724 17.5191C24.6551 17.2356 24.4832 16.978 24.2666 16.761ZM6.28328 8.09382C6.28328 4.78076 8.97494 2.08524 12.2833 2.08524C15.5916 2.08524 18.2833 4.78076 18.2833 8.09382C18.2833 11.4069 15.5916 14.1024 12.2833 14.1024C8.97494 14.1024 6.28328 11.4069 6.28328 8.09382ZM23.3237 19.1214C23.136 19.3089 22.8817 19.4142 22.6166 19.4142C22.3514 19.4142 22.0971 19.3089 21.9095 19.1214L18.719 15.9263L17.7234 13.5131L20.1332 14.5101L23.3238 17.7052C23.511 17.8931 23.6162 18.1478 23.6162 18.4133C23.6161 18.6788 23.511 18.9335 23.3237 19.1214Z" fill="#F6F8ED"/>
<path d="M24.2666 16.761L20.8881 13.3777L18.2894 12.3025C19.1547 11.0703 19.6183 9.60023 19.6166 8.09382C19.6166 4.04441 16.3269 0.75 12.2833 0.75C8.23965 0.75 4.94995 4.04441 4.94995 8.09382C4.94995 12.1432 8.23965 15.4376 12.2833 15.4376C13.8006 15.4394 15.2807 14.9671 16.5174 14.0867L17.5882 16.682L20.9666 20.0655C21.1832 20.2825 21.4405 20.4547 21.7236 20.5721C22.0067 20.6895 22.3101 20.75 22.6165 20.75C22.9229 20.75 23.2264 20.6896 23.5095 20.5722C23.7926 20.4547 24.0498 20.2826 24.2665 20.0656C24.4832 19.8487 24.655 19.5911 24.7723 19.3076C24.8896 19.0241 24.9499 18.7202 24.95 18.4134C24.95 18.1065 24.8896 17.8026 24.7724 17.5191C24.6551 17.2356 24.4832 16.978 24.2666 16.761ZM6.28328 8.09382C6.28328 4.78076 8.97494 2.08524 12.2833 2.08524C15.5916 2.08524 18.2833 4.78076 18.2833 8.09382C18.2833 11.4069 15.5916 14.1024 12.2833 14.1024C8.97494 14.1024 6.28328 11.4069 6.28328 8.09382ZM23.3237 19.1214C23.136 19.3089 22.8817 19.4142 22.6166 19.4142C22.3514 19.4142 22.0971 19.3089 21.9095 19.1214L18.719 15.9263L17.7234 13.5131L20.1332 14.5101L23.3238 17.7052C23.511 17.8931 23.6162 18.1478 23.6162 18.4133C23.6161 18.6788 23.511 18.9335 23.3237 19.1214Z" stroke="#F6F8ED" stroke-width="0.5"/>
</g>
<defs>
<filter id="filter0_d_116_110" x="0.699951" y="0.5" width="28.5" height="28.5" filterUnits="userSpaceOnUse" color-interpolation-filters="sRGB">
<feFlood flood-opacity="0" result="BackgroundImageFix"/>
<feColorMatrix in="SourceAlpha" type="matrix" values="0 0 0 0 0 0 0 0 0 0 0 0 0 0 0 0 0 0 127 0" result="hardAlpha"/>
<feOffset dy="4"/>
<feGaussianBlur stdDeviation="2"/>
<feComposite in2="hardAlpha" operator="out"/>
<feColorMatrix type="matrix" values="0 0 0 0 0 0 0 0 0 0 0 0 0 0 0 0 0 0 0.25 0"/>
<feBlend mode="normal" in2="BackgroundImageFix" result="effect1_dropShadow_116_110"/>
<feBlend mode="normal" in="SourceGraphic" in2="effect1_dropShadow_116_110" result="shape"/>
</filter>
</defs>
</svg>
