<svg width="45" height="38" viewBox="0 0 45 38" fill="none" xmlns="http://www.w3.org/2000/svg">
<g filter="url(#filter0_d_116_92)">
<path d="M34.3428 11.1681C34.1644 10.8354 33.9088 10.5582 33.6011 10.3635C33.2934 10.1688 32.944 10.0632 32.5871 10.057H19.3673L18.7683 7.54599C18.7077 7.30359 18.5727 7.09039 18.3852 6.94109C18.1976 6.79179 17.9686 6.7152 17.7355 6.7238H15.6699C15.396 6.7238 15.1333 6.84085 14.9396 7.04922C14.7459 7.25759 14.6371 7.54019 14.6371 7.83487C14.6371 8.12954 14.7459 8.41214 14.9396 8.62051C15.1333 8.82888 15.396 8.94594 15.6699 8.94594H16.9505L19.8011 20.3455C19.8616 20.5879 19.9966 20.8011 20.1842 20.9504C20.3717 21.0997 20.6007 21.1763 20.8339 21.1677H30.129C30.3197 21.1671 30.5066 21.1097 30.6688 21.0018C30.8311 20.8939 30.9624 20.7398 31.0482 20.5566L34.4358 13.268C34.5826 12.9369 34.651 12.5719 34.6347 12.2055C34.6185 11.839 34.5182 11.4826 34.3428 11.1681ZM29.4887 18.9456H21.6188L19.9353 12.2791H32.5871L29.4887 18.9456Z" fill="#F6F8ED"/>
</g>
<g filter="url(#filter1_d_116_92)">
<path d="M20.3174 26.7231C21.173 26.7231 21.8666 25.9769 21.8666 25.0565C21.8666 24.1361 21.173 23.3899 20.3174 23.3899C19.4618 23.3899 18.7682 24.1361 18.7682 25.0565C18.7682 25.9769 19.4618 26.7231 20.3174 26.7231Z" fill="#F6F8ED"/>
</g>
<g filter="url(#filter2_d_116_92)">
<path d="M30.6454 26.7231C31.501 26.7231 32.1946 25.9769 32.1946 25.0565C32.1946 24.1361 31.501 23.3899 30.6454 23.3899C29.7898 23.3899 29.0962 24.1361 29.0962 25.0565C29.0962 25.9769 29.7898 26.7231 30.6454 26.7231Z" fill="#F6F8ED"/>
</g>
<defs>
<filter id="filter0_d_116_92" x="10.6371" y="6.72314" width="28" height="22.4453" filterUnits="userSpaceOnUse" color-interpolation-filters="sRGB">
<feFlood flood-opacity="0" result="BackgroundImageFix"/>
<feColorMatrix in="SourceAlpha" type="matrix" values="0 0 0 0 0 0 0 0 0 0 0 0 0 0 0 0 0 0 127 0" result="hardAlpha"/>
<feOffset dy="4"/>
<feGaussianBlur stdDeviation="2"/>
<feComposite in2="hardAlpha" operator="out"/>
<feColorMatrix type="matrix" values="0 0 0 0 0 0 0 0 0 0 0 0 0 0 0 0 0 0 0.25 0"/>
<feBlend mode="normal" in2="BackgroundImageFix" result="effect1_dropShadow_116_92"/>
<feBlend mode="normal" in="SourceGraphic" in2="effect1_dropShadow_116_92" result="shape"/>
</filter>
<filter id="filter1_d_116_92" x="14.7682" y="23.3899" width="11.0984" height="11.3333" filterUnits="userSpaceOnUse" color-interpolation-filters="sRGB">
<feFlood flood-opacity="0" result="BackgroundImageFix"/>
<feColorMatrix in="SourceAlpha" type="matrix" values="0 0 0 0 0 0 0 0 0 0 0 0 0 0 0 0 0 0 127 0" result="hardAlpha"/>
<feOffset dy="4"/>
<feGaussianBlur stdDeviation="2"/>
<feComposite in2="hardAlpha" operator="out"/>
<feColorMatrix type="matrix" values="0 0 0 0 0 0 0 0 0 0 0 0 0 0 0 0 0 0 0.25 0"/>
<feBlend mode="normal" in2="BackgroundImageFix" result="effect1_dropShadow_116_92"/>
<feBlend mode="normal" in="SourceGraphic" in2="effect1_dropShadow_116_92" result="shape"/>
</filter>
<filter id="filter2_d_116_92" x="25.0962" y="23.3899" width="11.0984" height="11.3333" filterUnits="userSpaceOnUse" color-interpolation-filters="sRGB">
<feFlood flood-opacity="0" result="BackgroundImageFix"/>
<feColorMatrix in="SourceAlpha" type="matrix" values="0 0 0 0 0 0 0 0 0 0 0 0 0 0 0 0 0 0 127 0" result="hardAlpha"/>
<feOffset dy="4"/>
<feGaussianBlur stdDeviation="2"/>
<feComposite in2="hardAlpha" operator="out"/>
<feColorMatrix type="matrix" values="0 0 0 0 0 0 0 0 0 0 0 0 0 0 0 0 0 0 0.25 0"/>
<feBlend mode="normal" in2="BackgroundImageFix" result="effect1_dropShadow_116_92"/>
<feBlend mode="normal" in="SourceGraphic" in2="effect1_dropShadow_116_92" result="shape"/>
</filter>
</defs>
</svg>
